<?xml version="1.0" standalone="no"?>
<!DOCTYPE svg PUBLIC "-//W3C//DTD SVG 20010904//EN"
 "http://www.w3.org/TR/2001/REC-SVG-20010904/DTD/svg10.dtd">
<svg version="1.0" xmlns="http://www.w3.org/2000/svg"
 width="752.000000pt" height="752.000000pt" viewBox="0 0 752.000000 752.000000"
 preserveAspectRatio="xMidYMid meet">
<metadata>
Created by potrace 1.11, written by Peter Selinger 2001-2013
</metadata>
<g transform="translate(0.000000,752.000000) scale(0.100000,-0.100000)"
fill="#000000" stroke="none">
<path d="M4630 6773 c-28 -5 -166 -59 -190 -74 -8 -5 -22 -12 -30 -15 -21 -9
-151 -96 -169 -112 -17 -17 -110 -87 -165 -126 -136 -95 -330 -288 -419 -416
-162 -233 -263 -427 -309 -595 -36 -134 -68 -346 -68 -457 l0 -107 -45 48
c-25 27 -57 64 -73 84 -31 41 -203 239 -242 278 -14 14 -47 52 -75 84 -95 110
-345 383 -495 540 -125 130 -203 215 -249 272 -84 104 -181 237 -181 248 0 7
-27 43 -60 79 -33 37 -60 74 -60 84 -1 25 -64 89 -108 108 -71 30 -160 17
-292 -43 -99 -45 -133 -65 -158 -94 -13 -16 -28 -29 -33 -29 -30 0 -192 -148
-220 -202 -38 -73 -13 -164 54 -196 15 -7 38 -23 50 -35 81 -79 271 -253 295
-271 16 -11 112 -101 213 -199 172 -166 258 -256 419 -437 167 -188 354 -385
621 -655 372 -376 432 -438 462 -472 l29 -33 -35 -47 c-20 -27 -49 -61 -67
-78 -25 -24 -31 -37 -29 -65 2 -28 -5 -43 -32 -72 -29 -30 -36 -34 -47 -22
-18 19 -90 18 -129 -4 -112 -60 -305 -195 -383 -267 -19 -18 -40 -34 -47 -36
-7 -2 -153 -143 -326 -314 -172 -170 -374 -369 -448 -441 -158 -154 -488 -454
-501 -454 -16 0 -8 -44 13 -66 19 -21 24 -21 57 -9 43 15 339 169 397 206 22
14 104 62 182 107 78 45 309 185 513 312 204 126 375 230 380 230 5 0 10 12
12 27 2 21 17 37 64 68 33 22 85 60 115 84 30 23 71 52 92 63 l39 19 44 -44
44 -45 -49 -68 c-28 -38 -57 -79 -66 -91 -14 -20 -45 -33 -116 -47 -17 -4 -45
-33 -91 -93 -113 -152 -403 -595 -648 -991 -35 -56 -67 -102 -71 -102 -4 0 -9
6 -12 13 -9 24 -25 -9 -92 -188 -138 -369 -206 -535 -225 -545 -10 -6 -33 -10
-50 -10 -24 0 -31 -4 -28 -17 3 -14 19 -16 132 -15 70 0 130 3 133 6 13 12
-12 26 -47 26 -21 0 -42 5 -45 11 -4 5 8 53 26 105 l33 94 112 0 111 0 26 -72
c41 -117 42 -124 15 -132 -13 -3 -40 -6 -60 -6 -27 0 -38 -4 -38 -15 0 -13 28
-15 196 -15 152 0 195 3 192 13 -3 6 -24 15 -47 18 -24 3 -47 12 -52 20 -5 8
-57 135 -115 282 l-106 268 43 37 c54 45 186 165 524 476 439 404 637 613 847
894 79 106 80 107 74 157 -4 43 -2 52 17 66 12 9 37 19 56 22 19 4 86 41 149
83 63 42 120 78 127 80 14 6 180 -164 420 -431 99 -110 222 -245 274 -300 51
-55 109 -125 130 -155 20 -30 39 -57 42 -60 28 -23 73 -150 53 -150 -3 0 -48
20 -101 45 l-95 45 -124 -82 c-68 -46 -124 -87 -124 -92 0 -17 175 -172 237
-209 34 -21 63 -39 63 -41 0 -9 -116 17 -119 27 -2 7 -23 31 -47 54 -33 32
-61 48 -116 65 -68 21 -92 22 -333 23 -231 0 -260 -2 -263 -16 -2 -13 9 -17
54 -22 31 -3 61 -10 66 -15 4 -4 7 -244 6 -533 l-3 -524 -57 -5 c-60 -5 -74
-12 -63 -29 11 -18 460 -14 553 5 125 26 195 73 238 159 24 50 26 63 22 148
-3 79 -8 100 -31 140 -47 80 -174 145 -287 148 -29 0 -24 3 26 14 70 15 138
46 174 81 l25 23 61 -19 c50 -15 188 -40 225 -40 14 0 12 -613 -3 -628 -7 -7
-29 -12 -50 -12 -27 0 -38 -4 -38 -15 0 -13 26 -15 170 -15 144 0 170 2 170
15 0 10 -10 15 -31 15 -68 0 -69 2 -69 190 l0 169 38 -6 c91 -14 114 -44 131
-177 13 -98 25 -128 68 -168 36 -35 73 -48 131 -48 60 0 94 22 90 57 -6 54
-65 56 -78 2 l-6 -24 -18 27 c-9 14 -22 57 -27 95 -20 148 -52 201 -144 238
-42 17 -53 25 -35 25 37 0 121 43 154 79 23 24 30 42 34 87 6 71 -13 111 -68
145 -22 13 -40 26 -40 29 0 3 15 14 33 24 35 20 196 126 212 139 6 5 61 45
124 90 141 101 153 116 155 195 1 71 17 93 88 124 64 27 140 112 167 183 14
36 21 79 21 123 0 91 -34 147 -111 186 -171 85 -465 -33 -551 -222 -16 -34
-35 -65 -42 -68 -17 -7 -119 44 -210 104 -107 71 -306 275 -479 493 -86 108
-212 256 -281 328 -69 73 -126 136 -126 140 0 29 259 53 596 56 209 1 255 4
280 18 17 9 100 25 204 38 96 11 183 25 192 30 9 5 31 9 48 9 70 0 493 124
615 180 11 5 54 24 97 43 385 174 787 487 1010 787 104 140 141 202 180 299
25 62 29 85 26 138 -2 40 -10 69 -20 79 -23 23 -121 44 -207 44 -102 0 -149
-24 -208 -104 -119 -161 -302 -346 -492 -495 -59 -46 -227 -161 -235 -161 -3
0 -22 -12 -43 -26 -44 -30 -176 -98 -213 -109 -14 -4 -43 -16 -65 -26 -145
-66 -738 -214 -845 -210 -25 1 -58 2 -75 3 -16 1 -77 -4 -135 -10 -58 -6 -136
-14 -175 -17 -103 -9 -186 -21 -220 -34 -16 -6 -56 -13 -88 -17 -37 -3 -64
-12 -75 -24 -11 -12 -48 -23 -114 -33 -98 -16 -138 -30 -138 -47 0 -6 -4 -10
-9 -10 -5 0 -42 -19 -83 -43 -67 -40 -74 -42 -89 -28 -36 36 -52 74 -60 148
-6 54 -18 96 -38 136 l-30 58 16 86 c13 69 14 107 6 197 -18 211 2 525 48 731
37 166 131 359 234 481 22 26 46 55 53 65 72 101 303 300 492 424 80 52 94 63
139 110 58 60 74 81 94 124 39 89 0 247 -66 265 -25 6 -118 6 -157 -1z m-1045
-3014 c11 -17 -1 -21 -15 -4 -8 9 -8 15 -2 15 6 0 14 -5 17 -11z m549 -1634
c-25 -19 -34 -19 -34 0 0 10 10 15 27 15 26 0 26 -1 7 -15z m99 -261 c67 -26
126 -50 130 -54 11 -10 -14 -59 -45 -87 -37 -34 -92 -53 -158 -53 l-60 0 0
120 c0 66 2 120 5 120 3 0 60 -21 128 -46z m880 -156 c14 -18 22 -48 25 -85 3
-48 0 -64 -20 -92 -28 -43 -70 -68 -126 -77 l-42 -7 0 132 c0 129 0 131 23
132 12 0 38 7 57 14 46 18 59 15 83 -17z m-845 -103 c62 -19 105 -54 135 -109
19 -35 22 -57 22 -146 0 -89 -3 -111 -22 -146 -47 -88 -112 -127 -213 -128
-97 -1 -90 -23 -90 279 l0 265 58 0 c32 0 81 -7 110 -15z m-2279 -179 c23 -60
40 -110 39 -111 -7 -5 -188 -16 -188 -11 0 5 56 161 79 220 7 17 15 26 21 20
5 -5 27 -58 49 -118z"/>
<path d="M817 2204 c-4 -4 -7 -16 -7 -26 0 -30 -23 -31 -110 -4 -93 30 -154
33 -227 11 -59 -18 -144 -89 -173 -144 -29 -57 -41 -147 -30 -215 18 -113 79
-178 245 -267 116 -62 190 -116 220 -160 78 -119 45 -278 -70 -330 -82 -38
-213 -13 -272 52 -34 38 -70 118 -83 186 -12 62 -33 95 -49 77 -5 -5 -11 -91
-13 -192 -5 -180 -4 -183 16 -180 12 2 23 13 26 28 8 32 31 31 129 -5 65 -23
86 -26 165 -23 111 4 182 33 251 103 64 64 96 136 97 222 3 161 -58 237 -299
369 -65 36 -132 76 -149 89 -98 75 -98 274 -1 334 76 46 161 35 234 -32 46
-42 93 -124 93 -163 0 -23 24 -49 37 -41 5 3 8 74 7 159 -2 122 -5 154 -16
156 -8 1 -17 0 -21 -4z"/>
<path d="M6134 1800 c-155 -23 -267 -140 -295 -308 -31 -186 52 -357 209 -434
62 -31 74 -33 167 -33 91 0 106 3 154 28 30 15 55 26 56 25 1 -2 8 -13 14 -25
6 -13 19 -23 29 -23 15 0 17 15 19 145 2 122 -1 145 -13 145 -16 0 -26 -21
-45 -93 -45 -177 -255 -226 -359 -84 -53 73 -73 159 -68 300 3 107 7 129 32
182 33 73 59 102 111 126 46 21 66 23 118 8 75 -21 116 -76 147 -196 12 -47
37 -58 44 -20 3 12 7 73 11 135 4 95 3 112 -9 112 -9 0 -21 -10 -27 -22 -6
-13 -13 -24 -14 -26 -1 -1 -22 9 -46 22 -35 20 -156 50 -179 45 -3 -1 -28 -5
-56 -9z"/>
<path d="M6860 1797 c-109 -25 -198 -99 -249 -206 -23 -50 -26 -68 -26 -171 0
-105 2 -120 28 -176 31 -67 108 -150 171 -183 22 -11 64 -25 95 -32 259 -54
476 170 433 446 -15 94 -42 153 -103 219 -84 92 -220 132 -349 103z m177 -55
c35 -25 85 -117 102 -186 17 -71 15 -258 -4 -331 -34 -131 -115 -192 -217
-165 -61 17 -96 48 -128 115 -40 80 -53 160 -47 275 12 216 86 325 213 317 31
-2 62 -11 81 -25z"/>
<path d="M2623 1786 c-149 -49 -240 -171 -250 -339 -16 -253 141 -427 386
-427 77 0 95 4 145 29 l57 28 15 -28 c8 -16 21 -29 28 -29 10 0 14 32 18 137
3 76 3 143 1 151 -10 24 -28 6 -41 -39 -37 -126 -86 -186 -168 -208 -70 -19
-135 2 -191 61 -138 144 -113 525 41 619 46 28 128 26 182 -6 46 -27 87 -96
100 -170 7 -39 21 -58 35 -49 10 6 17 62 23 182 4 74 2 92 -9 92 -8 0 -20 -10
-26 -22 -6 -13 -13 -25 -15 -27 -1 -1 -29 10 -60 25 -47 23 -73 29 -143 31
-54 2 -102 -2 -128 -11z"/>
<path d="M1004 1779 c-10 -17 7 -27 51 -31 l40 -3 3 -342 2 -343 -45 0 c-49 0
-64 -23 -22 -34 29 -8 246 -8 286 0 44 9 33 28 -20 34 l-44 5 -3 166 -2 167
87 4 c104 4 168 30 211 86 22 29 27 48 30 106 3 61 1 76 -20 105 -29 43 -78
69 -154 81 -83 14 -391 13 -400 -1z m367 -45 c79 -40 78 -208 -1 -266 -14 -10
-46 -22 -72 -27 l-48 -8 0 158 0 159 45 0 c26 0 60 -7 76 -16z"/>
<path d="M3110 1775 c0 -10 10 -15 28 -15 54 0 52 10 50 -356 l-3 -339 -40 -5
c-27 -3 -40 -10 -40 -20 0 -13 42 -15 313 -15 l312 -1 0 118 c0 109 -1 118
-19 118 -15 0 -21 -12 -30 -61 -12 -70 -32 -106 -64 -118 -12 -5 -79 -11 -149
-14 l-128 -5 0 174 0 174 70 0 c83 0 104 -15 115 -81 10 -68 15 -80 32 -77 14
3 16 27 17 168 2 179 1 190 -20 190 -13 0 -17 -11 -29 -80 -3 -19 -9 -41 -14
-48 -10 -16 -71 -31 -128 -32 l-43 0 0 151 0 151 120 -4 c151 -5 165 -13 199
-116 15 -47 29 -72 39 -72 13 0 14 15 8 100 -4 56 -9 107 -13 115 -8 23 -583
22 -583 0z"/>
<path d="M5430 1776 c0 -10 14 -16 43 -18 l42 -3 3 -341 2 -342 -45 -7 c-29
-4 -45 -11 -42 -18 5 -17 319 -17 324 0 3 7 -13 15 -39 20 l-43 9 -3 342 -2
342 40 0 c29 0 40 4 40 15 0 13 -24 15 -160 15 -133 0 -160 -2 -160 -14z"/>
</g>
</svg>
